# xmcd CD database file
#
# Track frame offsets:
#	182
#	13720
#	28205
#	42820
#	59332
#	78520
#	92470
#	111002
#	130077
#	149060
#	161205
#	174020
#	189940
#	203305
#	216125
#	228567
#	237285
#	250857
#	263432
#	277150
#	297295
#	314550
#	323627
#
# Disc length: 4505 seconds
#
# Revision: 0
# Processed by: cddbd v1.5.1PL0 Copyright (c) Steve Scherf et al.
# Submitted via: CDex 1.51
#
DISCID=42119717
DTITLE=Sidney Bechet - Bechet
DYEAR=1991
DGENRE=Jazz
TTITLE0=Kansas City Man Blues
TTITLE1=Manday, Makeup Yuor Mind
TTITLE2=I've Found a New Baby
TTITLE3=Really the Blues
TTITLE4=Summertime
TTITLE5=Sidney Blues
TTITLE6=Four or Five Times
TTITLE7=Lazy River
TTITLE8=That's a Plenty
TTITLE9=Shake it and Break it
TTITLE10=Old Man Blues
TTITLE11=Nobody Knows the Way i Feel This Morning
TTITLE12=Blues in Thirds (Caution Blues)
TTITLE13=Stompy Jones
TTITLE14=Coal Black Shine
TTITLE15=Blues of Bechet
TTITLE16=Texas Moaner Blues
TTITLE17=Blues in the Air
TTITLE18=The Mooche
TTITLE19=Blue Horizon
TTITLE20=Bechet's Fantasy
TTITLE21=Wild Cat Blues
TTITLE22=Without a Home
EXTD=YEAR: 1991
EXTT0=
EXTT1=
EXTT2=
EXTT3=
EXTT4=
EXTT5=
EXTT6=
EXTT7=
EXTT8=
EXTT9=
EXTT10=
EXTT11=
EXTT12=
EXTT13=
EXTT14=
EXTT15=
EXTT16=
EXTT17=
EXTT18=
EXTT19=
EXTT20=
EXTT21=
EXTT22=
PLAYORDER=
